<svg height="235pt" viewBox="0 -2 235.79527 235" width="235pt" xmlns="http://www.w3.org/2000/svg"><path d="m111.496094 208.199219-15.699219 18.898437-80.800781-97.800781c-23.699219-28.597656-7.300782-74 29.699218-77.800781 1.800782-.199219 3.699219-.296875 5.601563-.296875 19 0 35.699219 9.699219 45.5 24.398437 9.796875-14.699218 26.5-24.398437 45.5-24.398437 1.898437 0 3.699219.097656 5.597656.296875 37 3.800781 53.300781 49.101562 29.699219 77.800781l-41.796875 50.601563" fill="#ea3457"/><path d="m95.796875 231.097656c-1.203125 0-2.300781-.5-3.101563-1.5l-80.699218-97.699218c-12.402344-15-15.402344-35.601563-8-53.699219 7.097656-17.300781 22.199218-28.703125 40.300781-30.601563 2-.199218 4-.300781 6-.300781 17.796875 0 34.398437 8 45.5 21.699219 11.097656-13.699219 27.699219-21.699219 45.5-21.699219 2 0 4 .101563 6 .300781 18.097656 1.800782 33.199219 13.300782 40.296875 30.601563 7.5 18.199219 4.402344 38.796875-8 53.699219l-41.796875 50.597656c-1.402344 1.703125-3.902344 1.902344-5.601563.5-1.699218-1.398438-1.898437-3.898438-.5-5.597656l41.800782-50.601563c10.5-12.699219 13.097656-30.199219 6.699218-45.597656-6-14.5-18.601562-24.101563-33.699218-25.601563-1.699219-.199218-3.5-.300781-5.199219-.300781-17 0-32.800781 8.5-42.203125 22.699219-.699219 1.101562-2 1.800781-3.296875 1.800781-1.300781 0-2.601563-.699219-3.300781-1.800781-9.402344-14.199219-25.199219-22.699219-42.199219-22.699219-1.703125 0-3.5.101563-5.203125.300781-15.097656 1.5-27.699219 11.101563-33.699219 25.601563-6.300781 15.398437-3.800781 32.898437 6.699219 45.597656l77.703125 94 12.597656-15.199219c1.402344-1.699218 3.902344-1.898437 5.601563-.5 1.699218 1.398438 1.898437 3.898438.5 5.601563l-15.699219 18.898437c-.703125 1-1.800781 1.5-3 1.5zm0 0" fill="#602f75"/><path d="m115.394531 183.699219c-8.300781-10.101563-2.597656-26.101563 10.5-27.402344.601563-.097656 1.300781-.097656 2-.097656 6.699219 0 12.601563 3.398437 16 8.597656 3.402344-5.199219 9.300781-8.597656 16-8.597656.699219 0 1.300781 0 2 .097656 13 1.300781 18.800781 17.300781 10.5 27.402344l-28.5 34.398437zm0 0" fill="#ffe600"/><path d="m21.59375 104.496094c-2.199219 0-4-1.796875-4-4 0-19.097656 15.5-34.597656 34.601562-34.597656 2.199219 0 4 1.800781 4 4 0 2.199218-1.800781 4-4 4-14.601562 0-26.601562 11.898437-26.601562 26.597656 0 2.203125-1.699219 4-4 4zm0 0" fill="#fff"/><path d="m227.894531 44.199219h-4.699219c-1-5.101563-3.101562-9.800781-5.800781-14l3.402344-3.402344c1.597656-1.597656 1.597656-4.199219 0-5.800781l-5.601563-5.597656c-1.601562-1.601563-4.199218-1.601563-5.800781 0l-3.398437 3.398437c-4.199219-2.800781-8.902344-4.800781-14-5.800781v-4.699219c0-2.199219-1.800782-4.097656-4.101563-4.097656h-7.898437c-2.199219 0-4.101563 1.796875-4.101563 4.097656v4.699219c-5.097656 1-9.898437 3.101562-14 5.800781l-3.398437-3.398437c-1.601563-1.601563-4.199219-1.601563-5.800782 0l-5.601562 5.597656c-1.597656 1.601562-1.597656 4.203125 0 5.703125l3.402344 3.398437c-2.800782 4.199219-4.800782 8.898438-5.800782 14h-4.699218c-2.199219 0-4.101563 1.800782-4.101563 4.101563v7.898437c0 2.199219 1.800781 4.101563 4.101563 4.101563h4.699218c1 5.097656 3.101563 9.796875 5.800782 14l-3.402344 3.398437c-1.597656 1.601563-1.597656 4.199219 0 5.800782l5.601562 5.597656c1.601563 1.601562 4.199219 1.601562 5.800782 0l3.398437-3.398438c4.199219 2.800782 8.902344 4.800782 14 5.800782v4.699218c0 2.199219 1.800781 4.101563 4.101563 4.101563h7.898437c2.199219 0 4.101563-1.800781 4.101563-4.101563v-4.699218c5.097656-1 9.898437-3.101563 14-5.800782l3.398437 3.398438c1.601563 1.601562 4.199219 1.601562 5.800781 0l5.601563-5.597656c1.597656-1.601563 1.597656-4.199219 0-5.800782l-3.402344-3.398437c2.800781-4.203125 4.800781-8.902344 5.800781-14h4.699219c2.199219 0 4.101563-1.800781 4.101563-4.101563v-7.898437c0-2.101563-1.800782-4-4.101563-4zm-43.898437 22c-7.699219 0-14-6.300781-14-14 0-7.703125 6.300781-14 14-14 7.699218 0 14 6.296875 14 14 0 7.699219-6.300782 14-14 14zm0 0" fill="#ffe600"/><path d="m187.894531 104.097656h-7.898437c-4.402344 0-7.902344-3.601562-7.902344-7.898437v-1.703125c-3.296875-.898438-6.597656-2.296875-9.597656-4l-1.199219 1.203125c-1.5 1.5-3.5 2.296875-5.601563 2.296875-2.101562 0-4.101562-.796875-5.601562-2.296875l-5.597656-5.601563c-3.101563-3.101562-3.101563-8.101562 0-11.199218l1.199218-1.199219c-1.699218-3-3.101562-6.300781-4-9.601563h-1.699218c-4.402344 0-7.902344-3.601562-7.902344-7.898437v-7.902344c0-4.398437 3.601562-7.898437 7.902344-7.898437h1.699218c.898438-3.300782 2.300782-6.601563 4-9.601563l-1.199218-1.199219c-3.101563-3.101562-3.101563-8.101562 0-11.199218l5.597656-5.601563c3.101562-3.097656 8.101562-3.097656 11.203125 0l1.199219 1.199219c3-1.699219 6.300781-3.097656 9.597656-4v-1.699219c0-4.398437 3.601562-7.898437 7.902344-7.898437h7.898437c4.402344 0 7.902344 3.597656 7.902344 7.898437v1.699219c3.296875.902344 6.597656 2.300781 9.597656 4l1.199219-1.199219c3.101562-3.097656 8.101562-3.097656 11.203125 0l5.597656 5.601563c3.101563 3.097656 3.101563 8.097656 0 11.199218l-1.199219 1.199219c1.699219 3 3.101563 6.300781 4 9.601563h1.699219c4.402344 0 7.902344 3.597656 7.902344 7.898437v7.902344c0 4.398437-3.601563 7.898437-7.902344 7.898437h-1.699219c-.898437 3.300782-2.300781 6.601563-4 9.601563l1.199219 1.199219c3.101563 3.097656 3.101563 8.097656 0 11.199218l-5.597656 5.601563c-1.5 1.5-3.5 2.296875-5.601563 2.296875-2.101562 0-4.101562-.796875-5.601562-2.296875l-1.199219-1.203125c-3 1.703125-6.300781 3.101562-9.597656 4v1.703125c.097656 4.296875-3.5 7.898437-7.902344 7.898437zm-25.898437-22.398437c.699218 0 1.5.199219 2.097656.597656 3.902344 2.601563 8.203125 4.402344 12.703125 5.300781 1.796875.398438 3.097656 2 3.097656 3.800782v4.699218c0 .101563.101563.199219.199219.199219h7.902344c.097656 0 .199218-.097656.199218-.199219v-4.699218c0-1.800782 1.300782-3.402344 3.101563-3.800782 4.5-.898437 8.796875-2.699218 12.699219-5.300781 1.5-1 3.597656-.800781 4.898437.5l3.402344 3.402344c.097656.097656.199219.097656.296875 0l5.601562-5.601563c.101563-.101562.101563-.199218 0-.300781l-3.398437-3.398437c-1.300781-1.300782-1.5-3.300782-.5-4.902344 2.597656-3.898438 4.398437-8.199219 5.296875-12.699219.402344-1.800781 2-3.097656 3.800781-3.097656h4.699219c.101562 0 .203125-.101563.203125-.203125v-7.898438c0-.101562-.101563-.199218-.203125-.199218h-4.699219c-1.800781 0-3.398437-1.300782-3.800781-3.101563-.898438-4.5-2.699219-8.800781-5.296875-12.699219-1-1.5-.800781-3.601562.5-4.898437l3.398437-3.402344c.101563-.097656.101563-.199219 0-.300781l-5.601562-5.597656c-.097656-.101563-.199219-.101563-.296875 0l-3.402344 3.398437c-1.300781 1.300781-3.300781 1.5-4.898437.5-3.902344-2.597656-8.199219-4.398437-12.699219-5.300781-1.800781-.398438-3.101563-2-3.101563-3.796875v-4.703125c0-.097656-.101562-.199219-.199218-.199219h-7.902344c-.097656 0-.199219.101563-.199219.199219v4.703125c0 1.796875-1.300781 3.398437-3.097656 3.796875-4.5.902344-8.800781 2.703125-12.703125 5.300781-1.5 1-3.597656.800781-4.898438-.5l-3.398437-3.398437c-.101563-.101563-.203125-.101563-.300781 0l-5.5 5.898437c-.101563.101563-.101563.199219 0 .300781l3.398437 3.398438c1.300781 1.300781 1.5 3.300781.5 4.902344-2.597656 3.898437-4.398437 8.199218-5.300781 12.699218-.398438 1.800782-2 3.101563-3.796875 3.101563h-4.703125c-.097656 0-.199219.097656-.199219.199219v7.898437c0 .101563.101563.199219.199219.199219h4.703125c1.796875 0 3.398437 1.300781 3.796875 3.101562.902344 4.5 2.703125 8.800782 5.300781 12.699219 1 1.5.800781 3.601563-.5 4.902344l-3.398437 3.398437c-.101563.101563-.101563.199219 0 .300782l5.597656 5.597656c.101562.101562.203125.101562.300781 0l3.402344-3.398438c.699219-1 1.699219-1.398437 2.699219-1.398437zm22-11.601563c-9.902344 0-17.902344-8-17.902344-17.898437 0-9.902344 8-17.902344 17.902344-17.902344 9.898437 0 17.898437 8 17.898437 17.902344 0 9.898437-8 17.898437-17.898437 17.898437zm0-28c-5.601563 0-10.101563 4.5-10.101563 10.101563 0 5.597656 4.5 10.097656 10.101563 10.097656 5.597656 0 10.097656-4.5 10.097656-10.097656 0-5.601563-4.5-10.101563-10.097656-10.101563zm0 0" fill="#602f75"/></svg>