<svg height="512" viewBox="0 0 60 59" width="512" xmlns="http://www.w3.org/2000/svg"><g id="Page-1" fill="none" fill-rule="evenodd"><g id="020---Hot-Match"><path id="Shape" d="m59 42c.3129954 6.1835582-3.1004926 11.9553845-8.67 14.66-7 3.32-15.89.28-19.71-6.67-2.1505464-4.1372244-2.1505464-9.0627756 0-13.2.5789619-1.1077394 1.213091-2.1857589 1.9-3.23 1.413812-2.0436371 2.7028282-4.1708478 3.86-6.37 1.2261729-2.3592257 1.9094988-4.9626977 2-7.62.0174722-1.41513-.1267967-2.8276231-.43-4.21-.06-.27-.15-.75-.26-1.28-.0712419-.3600562.085856-.726919.3956017-.9238288s.7086036-.183476 1.0043983.0338288c1.8878501 1.4488686 3.6939528 3.0012489 5.41 4.65l.62.59c.76.88 3.19 4.12 1.63 7.71-1.15 2.63-2.53 8.53 1.93 8.84 1.77.13 3.09-1.35 3.79-2.81.353832-.6796016.5936886-1.4126843.71-2.17.0602496-.4399962.0399183-.8872842-.06-1.32 0-.14-.29-1.08.15-.92s.69.86.88 1.17c2.43 3.97 4.65 8.36 4.85 13.07z" fill="#ffdc00"/><path id="Shape" d="m37.77 14.56c1.27 1 2.52 2.13 3.71 3.27l.62.59c.76.88 3.19 4.12 1.63 7.71-1.15 2.63-2.53 8.53 1.93 8.84.5569068.0370189 1.1126188-.0880164 1.6-.36-2.72-1.36-1.54-6.18-.53-8.48 1.56-3.59-.87-6.83-1.63-7.71l-.62-.59c-1.7160472-1.6487511-3.5221499-3.2011314-5.41-4.65-.2957947-.2173048-.6946526-.2307386-1.0043983-.0338288s-.4668436.5637726-.3956017.9238288c.04.17.07.33.1.49z" fill="#fec108"/><path id="Shape" d="m54.15 29c-.19-.31-.51-1-.88-1.17s-.18.78-.15.92c.091614.4101322.1119106.8329786.06 1.25-.0791137.5669209-.2303381 1.1214104-.45 1.65 1.8739868 3.1514795 2.9931882 6.6939058 3.27 10.35.3129954 6.1835582-3.1004926 11.9553845-8.67 14.66-1.4478771.676165-2.9998291 1.1021911-4.59 1.26 2.5974522.2761688 5.2211059-.1593784 7.59-1.26 5.5695074-2.7046155 8.9829954-8.4764418 8.67-14.66-.2-4.71-2.42-9.1-4.85-13z" fill="#fec108"/><path id="Shape" d="m38.36 56.07c2.59 2.31 6.78 2.23 9.73.8 1.7583707-.8547781 3.1905737-2.2588987 4.08-4 .6482076-1.1819162.8130885-2.5690667.46-3.87-.4353181-1.1691225-1.1697714-2.2035639-2.13-3-2.06-1.86-5-3.25-6.33-5.79-.4541335-.9669613-.7156654-2.0130889-.77-3.08-.0180413-.1805107-.1450186-.3314454-.3197787-.3801128s-.361475.01491-.4702213.1601128c-.7738644.9883309-1.4756734 2.0310186-2.1 3.12-.6992065.9608361-.864785 2.2102012-.44 3.32.42.87 1.25 1.46 1.66 2.34.2760394.4479651.33846.995522.1703275 1.4941221-.1681326.4986-.5493856.896546-1.0403275 1.0858779-.7422376.332903-1.6075979.2290597-2.25-.27-.517744-.35342-.876661-.8953846-1-1.51-.06-.63-.33-.23-.45.12-.1520624.4536949-.2690728.9183934-.35 1.39-.1653737.7891686-.2855692 1.5871329-.36 2.39-.1630621 1.4786653.10797 2.9728165.78 4.3.2935367.5222215.6759371.9892239 1.13 1.38z" fill="#ff9801"/><g fill-rule="nonzero"><path id="Shape" d="m45 13.84c.0009546 1.3502476-.1738471 2.6948763-.52 4-1.7160472-1.6487511-3.5221499-3.2011314-5.41-4.65-.2957947-.2173048-.6946526-.2307386-1.0043983-.0338288s-.4668436.5637726-.3956017.9238288c.11.53.2 1 .26 1.28.3032033 1.3823769.4474722 2.79487.43 4.21-.0905012 2.6573023-.7738271 5.2607743-2 7.62-1.1571718 2.1991522-2.446188 4.3263629-3.86 6.37-2.4133333 2-5.19 4.03-8.33 6.09-.728.48-1.672.48-2.4 0-14.08-9.4-20.77-17.46-20.77-25.81 0-6.93 4.49-12.84 11-12.84 4.4052129.08072396 8.5010227 2.28129087 11 5.91 2.4989773-3.62870913 6.5947871-5.82927604 11-5.91 6.51 0 11 5.91 11 12.84z" fill="#e91e63"/><path id="Shape" d="m34 1c-.5318875.00038983-1.063126.03714219-1.59.11 5.74.78 9.59 6.31 9.59 12.73 0 .55 0 1.1-.09 1.65.87.76 1.73 1.54 2.57 2.34.3461529-1.3051237.5209546-2.6497524.52-4 0-6.92-4.49-12.83-11-12.83z" fill="#ad1457"/><path id="Shape" d="m5 14c-.55228475 0-1-.4477153-1-1-.00534878-3.25494492 1.73009574-6.26432014 4.55-7.89.32118077-.19326073.72347054-.1906728 1.04213834.00670406.3186678.19737687.50019276.55639283.47024336.93003682-.0299494.37364398-.26634306.69916172-.6123817.84325912-2.14339859 1.28928186-3.45306562 3.6087212-3.45 6.11 0 .2652165-.10535684.5195704-.29289322.7071068s-.44189029.2928932-.70710678.2928932z" fill="#f5f5f5"/><circle id="Oval" cx="12" cy="5" fill="#f5f5f5" r="1"/><path id="Shape" d="m21.25 40.47c1.0593177.7077864 2.4406823.7077864 3.5 0 1.61-1.07 3.14-2.13 4.56-3.17-1.8820862 4.219638-1.7273206 9.0689601.42 13.16 2.9281972 5.2547323 8.4645077 8.519932 14.48 8.54 2.2531652.0088558 4.4801539-.4829945 6.52-1.44 5.9242317-2.8655049 9.5705761-8.9860139 9.27-15.56-.2-5.16-2.77-9.93-5-13.51l-.11-.2c-.2493309-.603081-.7071769-1.096419-1.29-1.39-.4085587-.1507765-.8670509-.0621604-1.19.23-.6.56-.36 1.48-.26 1.89.0639546.3302657.0639546.6697343 0 1-.098232.6470288-.2973168 1.274652-.59 1.86-.27.56-1.26 2.36-2.82 2.25-.6950068.0269251-1.3512461-.3202713-1.72-.91-1-1.57-.14-4.77.64-6.54 1.78-4.11-.92-7.75-1.79-8.76l-.11-.11-.22-.21c.3005724-1.2308992.4549715-2.4929439.46-3.76 0-7.76-5.27-13.84-12-13.84-4.2633536.03404117-8.2921238 1.95686331-11 5.25-2.7078762-3.29313669-6.7366464-5.21595883-11-5.25-6.73 0-12 6.08-12 13.84 0 8.64 6.55 16.85 21.25 26.63zm21.39 4.83c-.2681041-.5160615-.6044577-.9936837-1-1.42-.2422599-.2711646-.4566695-.5659777-.64-.88-.19-.38-.35-1.05.41-2.39.35-.61.76-1.24 1.22-1.91.1298944.7162355.3622806 1.4100262.69 2.06 1.1173101 1.7942461 2.6332335 3.3067475 4.43 4.42.7352421.5158353 1.4428835 1.0699319 2.12 1.66.8256788.6562482 1.4637825 1.5185504 1.85 2.5.2767853 1.0700299.1299134 2.2055999-.41 3.17-.8105275 1.5284881-2.0947183 2.7530306-3.66 3.49-2.54 1.24-6.32 1.41-8.63-.65-.3657628-.3244309-.676466-.7060555-.92-1.13-.5735084-1.1612453-.7992292-2.4634802-.65-3.75.0548128-.6444569.1449483-1.2854205.27-1.92.1.09.2.16.29.23.9087116.7642137 2.1724261.9464057 3.26.47.7099839-.2906811 1.2676161-.8627973 1.54-1.58.271934-.7797273.2104371-1.6370672-.17-2.37zm3.22-19.52c-.24.55-2.29 5.44-.51 8.37.7093862 1.1374071 1.9495925 1.8347875 3.29 1.85 1.89.14 3.69-1.12 4.76-3.38.2958208-.5949331.5206966-1.2225714.67-1.87 1.87 3.25 3.75 7.16 3.93 11.25.1118773 2.2477453-.3024473 4.4905769-1.21 6.55-.9133443 2.0419449-2.2815535 3.8479811-4 5.28.1-.17.2-.35.29-.53.7770431-1.4291757.960252-3.1067942.51-4.67-.4984187-1.3128256-1.3287809-2.4739545-2.41-3.37-.7248085-.6370822-1.4860968-1.2314213-2.28-1.78-1.5409101-.9395083-2.8500627-2.2144794-3.83-3.73-.3950305-.8515062-.6192607-1.7722089-.66-2.71-.0484509-.5833451-.442897-1.0803471-1-1.26-.577453-.1638235-1.1963317.0424693-1.56.52-.7959495 1.0260627-1.5209664 2.1052353-2.17 3.23-.891947 1.239682-1.0702386 2.8556871-.47 4.26.2697963.4937617.6062891.9480269 1 1.35.2740206.3029187.5091707.6388474.7 1 .1353492.2437612.1711819.5304224.1.8-.0969357.2114813-.2728239.3766008-.49.46-.4209334.1341947-.8812632.043638-1.22-.24-.2992436-.1891297-.5195789-.480541-.62-.82-.11-1-.75-1.19-1-1.22s-1 0-1.37 1.11c-.1666404.5060391-.2936898 1.024267-.38 1.55-.1698275.8261989-.2966647 1.6606543-.38 2.5-.1343879 1.4286098.0747601 2.8686457.61 4.2-1.9056993-1.275083-3.4765854-2.9900242-4.58-5-2.014708-3.8418919-2.014708-8.4281081 0-12.27.8176297-1.5232353 1.7155603-3.0019835 2.69-4.43 1.1353674-1.6596738 2.1641075-3.3898276 3.08-5.18 1.2808072-2.4778425 1.9882452-5.2119026 2.07-8 .0188183-1.4928059-.1355461-2.9827583-.46-4.44 0-.13-.06-.31-.11-.53s0-.28-.08-.43c1.9923812 1.5506588 3.8891758 3.2203724 5.68 5 .62.71 2.73 3.54 1.41 6.58zm-33.86-23.78c4.0651435.06075138 7.8485606 2.08851387 10.15 5.44.1831155.29298545.5044985.47069139.85.47.3455015.00069139.6668845-.17701455.85-.47 2.3014394-3.35148613 6.0848565-5.37924862 10.15-5.44 5.7 0 10 5.09 10 11.84-.0014248.6694224-.0515572 1.3378539-.15 2-1.38-1.25-2.78-2.43-4.18-3.49-.6251151-.494614-1.4941999-.5412363-2.1686426-.1163374-.6744427.4248988-1.0076096 1.2289397-.8313574 2.0063374l.14.71.12.58c.2908737 1.3129946.4284599 2.6552987.41 4-.0725802 2.5134674-.7118118 4.9780981-1.87 7.21-.8905343 1.7299486-1.8926497 3.400141-3 5-.26.39-.51.78-.76 1.17-2.34 1.9-5.07 3.9-8.13 5.94-.3972465.2501009-.9027535.2501009-1.3 0-14-9.41-20.28-17.11-20.28-25.01 0-6.75 4.3-11.84 10-11.84z" fill="#000"/></g></g></g></svg>