<?xml version="1.0" encoding="iso-8859-1"?>
<!-- Generator: Adobe Illustrator 19.0.0, SVG Export Plug-In . SVG Version: 6.00 Build 0)  -->
<svg version="1.1" id="Capa_1" xmlns="http://www.w3.org/2000/svg" xmlns:xlink="http://www.w3.org/1999/xlink" x="0px" y="0px"
	 viewBox="0 0 403.748 403.748" style="enable-background:new 0 0 403.748 403.748;" xml:space="preserve">
<g>
	<circle style="fill:#00E7FF;" cx="96.538" cy="143.848" r="68.267"/>
	<path style="fill:#00E7FF;" d="M96.546,218.941c-41.407,0-75.093-33.686-75.093-75.093s33.686-75.093,75.093-75.093
		s75.093,33.686,75.093,75.093S137.953,218.941,96.546,218.941z M96.546,82.408c-33.881,0-61.44,27.563-61.44,61.44
		s27.559,61.44,61.44,61.44s61.44-27.563,61.44-61.44S130.427,82.408,96.546,82.408z"/>
</g>
<path style="fill:#FFE600;" d="M210.761,320.367c27.407,0,49.626,18.886,49.626,42.182v33.886H6.825v-33.886
	c0-23.296,22.217-42.182,49.626-42.182l77.153-12.679"/>
<path style="fill:#602F75;" d="M260.386,403.261H6.827c-3.773,0-6.827-3.057-6.827-6.827v-33.886
	c0-26.856,25.013-48.741,55.88-49.007l76.621-12.59c3.739-0.604,7.233,1.91,7.84,5.63c0.613,3.721-1.906,7.233-5.627,7.844
	l-77.153,12.677c-0.367,0.06-0.734,0.09-1.106,0.09c-23.6,0-42.8,15.86-42.8,35.357v27.058h239.906v-27.059
	c0-19.497-19.2-35.357-42.8-35.357c-3.773,0-6.827-3.057-6.827-6.827s3.053-6.827,6.827-6.827c31.126,0,56.453,21.987,56.453,49.01
	v33.886C267.213,400.205,264.16,403.261,260.386,403.261z"/>
<path style="fill:#EA3457;" d="M391.025,125.643h-14.824c-3.243-15.974-9.562-30.819-18.26-43.953l10.52-10.52
	c4.968-4.968,4.968-13.022,0-17.99l-17.408-17.408c-4.968-4.968-13.022-4.968-17.99,0l-10.52,10.52
	c-13.134-8.697-27.977-15.017-43.952-18.26V13.208c0-7.025-5.695-12.721-12.721-12.721h-24.62c-7.026,0-12.721,5.695-12.721,12.721
	v14.824c-15.974,3.243-30.819,9.562-43.952,18.26l-10.52-10.52c-4.968-4.968-13.022-4.968-17.99,0l-17.41,17.41
	c-4.968,4.968-4.968,13.022,0,17.99l10.52,10.52c-8.697,13.135-15.017,27.977-18.26,43.953h-14.824
	c-7.026,0-12.721,5.695-12.721,12.722v24.62c0,7.025,5.695,12.721,12.721,12.721h14.824c3.243,15.974,9.562,30.819,18.26,43.952
	l-10.52,10.52c-4.968,4.968-4.968,13.022,0,17.99l17.41,17.41c4.968,4.968,13.022,4.968,17.99,0l10.52-10.52
	c13.135,8.697,27.977,15.017,43.952,18.26v14.824c0,7.026,5.695,12.721,12.721,12.721h24.62c7.026,0,12.721-5.695,12.721-12.721
	v-14.824c15.974-3.243,30.819-9.562,43.952-18.26l10.52,10.52c4.968,4.968,13.022,4.968,17.99,0l17.41-17.41
	c4.968-4.968,4.968-13.022,0-17.99l-10.52-10.52c8.697-13.135,15.017-27.977,18.26-43.952h14.824
	c7.026,0,12.721-5.695,12.721-12.721v-24.62C403.746,131.338,398.051,125.643,391.025,125.643z M253.559,194.48
	c-24.192,0-43.805-19.611-43.805-43.805c0-24.192,19.611-43.805,43.805-43.805s43.805,19.611,43.805,43.805
	C297.364,174.867,277.751,194.48,253.559,194.48z"/>
<path style="fill:#FFFFFF;" d="M164.813,307.688L164.813,307.688c-19.338,8.595-42.102,8.595-61.44,0l0,0v-47.787h61.44V307.688z"/>
<path style="fill:#602F75;" d="M134.093,320.915c-11.5,0-23.006-2.33-33.493-6.987c-2.466-1.097-4.053-3.543-4.053-6.24v-47.787
	c0-3.77,3.053-6.827,6.827-6.827h61.44c3.773,0,6.827,3.057,6.827,6.827v47.787c0,2.697-1.587,5.144-4.053,6.24
	C157.1,318.585,145.592,320.915,134.093,320.915z M164.813,307.688h0.067H164.813z M110.199,303.092
	c15.241,5.586,32.546,5.586,47.787,0v-36.364h-47.787V303.092z"/>
<path style="fill:#FFFFFF;" d="M170.73,273.555H97.456c-15.584,0-28.216-12.633-28.216-28.216v-60.53
	c0-33.932,27.508-61.44,61.44-61.44h6.827c33.932,0,61.44,27.508,61.44,61.44v60.53C198.946,260.922,186.313,273.555,170.73,273.555
	z"/>
<path style="fill:#602F75;" d="M170.733,280.381H97.452c-19.319,0-35.04-15.72-35.04-35.043v-60.53
	c0-37.644,30.626-68.267,68.267-68.267h6.827c37.641,0,68.267,30.623,68.267,68.267v60.53
	C205.773,264.661,190.053,280.381,170.733,280.381z M130.679,130.195c-30.114,0-54.613,24.499-54.613,54.613v60.53
	c0,11.793,9.593,21.39,21.386,21.39h73.281c11.793,0,21.386-9.597,21.386-21.39v-60.53c0-30.114-24.499-54.613-54.613-54.613
	H130.679z"/>
<g>
</g>
<g>
</g>
<g>
</g>
<g>
</g>
<g>
</g>
<g>
</g>
<g>
</g>
<g>
</g>
<g>
</g>
<g>
</g>
<g>
</g>
<g>
</g>
<g>
</g>
<g>
</g>
<g>
</g>
</svg>
