<svg height="512" viewBox="0 0 58 58" width="512" xmlns="http://www.w3.org/2000/svg"><g id="056---Search-Female-User" fill="none"><path id="Rectangle-path" d="m39.825 40.585h6.07v4.53h-6.07z" fill="#35495e" transform="matrix(.707 -.707 .707 .707 -17.746 42.857)"/><path id="Shape" d="m57.12 55.67-1.45 1.45c-.5636839.5710251-1.3326228.8924481-2.135.8924481s-1.5713161-.321423-2.135-.8924481l-8.58-8.58c-.5054432-.508506-.7000212-1.2486657-.51-1.94.15-.72.44-.85 3.37-3.78.376281-.3848255.8917826-.6017511 1.43-.6017511s1.053719.2169256 1.43.6017511l.72.72 6.43 6.46 1.41 1.4c.5736735.5610049.8987038 1.3284398.902462 2.1308198.0037583.8023801-.3140688 1.5728261-.882462 2.1391802z" fill="#f0c419"/><path id="Shape" d="m50.67 44.95-5.71 5.72h-.01l-1.41-1.41 5.72-5.71z" fill="#f29c1f"/><path id="Shape" d="m57.1 51.38v.01l-5.71 5.71h-.01l-1.41-1.41 5.72-5.71z" fill="#f29c1f"/><circle id="Oval" cx="24.25" cy="24.25" fill="#547580" r="24.25"/><path id="Shape" d="m38.53 38.53c-7.558877 7.5513883-19.690979 7.9103399-27.6830875.8190573-7.99210854-7.0912826-9.07969006-19.1798686-2.48164866-27.5837926 6.59804136-8.40392387 18.59939106-10.21620199 27.38473616-4.1352647 4.9207216 3.4145996 8.074423 8.8350208 8.6111082 14.800334.5366851 5.9653131-1.5988791 11.8615971-5.8311082 16.099666z" fill="#2fa8cc"/><path id="Shape" d="m34.1 20c-.3505104-.2952564-.7917904-.4611777-1.25-.47 2.65-2.63 1.6-8.73-2.76-8.82 0 0-.26-.53-.29-.57-1.07-1.55-3.57-2.14-5.46-2.14-5.58 0-8.62 3.74-9.57 9.26-.88 5.11 1.67 10.17-2.81 15.63 3.78-.22 5.35-1.72 6.21-4.81.4619679 1.5459864 1.4395584 2.8870853 2.77 3.8-5.1272309 1.698048-10.6992581 1.4560953-15.66-.68-3.02516857-8.2679997-.34986192-17.5430962 6.613893-22.92989313 6.9637549-5.38679694 16.6135031-5.64571891 23.856107-.64010687.6555315 4.1961606.0824722 8.4923686-1.65 12.37z" fill="#67b9cc"/><path id="Shape" d="m34.1 20c-2.526266 5.6304932-7.3012526 9.9410435-13.16 11.88-1.3338963-.9093548-2.3124785-2.2518141-2.77-3.8-.86 3.08-2.41 4.59-6.21 4.81 4.48-5.45 1.93-10.53 2.81-15.63.7-4.05 2.67-7.92 7.1-9 2.2068188-.54974258 4.5360339-.31646762 6.59.66.7369754.35253435 1.3175443.96515918 1.63 1.72 4.36.09 5.41 6.19 2.76 8.82.4670017.0282545.9093194.2193357 1.25.54z" fill="#35495e"/><path id="Shape" d="m36.89 40c-7.2049381 5.7751462-17.4069615 5.935646-24.79.39 2-.91 4.88-1.07 6.16-1.51 1.1932688-.4688535 2.2937135-1.1460503 3.25-2 .4157569-.3388108.6609086-.8437502.67-1.38.0249602-1.1330224-.2255485-2.2551643-.73-3.27l-.51-.34c5.8606784-1.9412349 10.6359859-6.2557035 13.16-11.89.4314972.35779.6808331.889462.68 1.45v1.91c-.0050531.5207512-.2203385 1.0173598-.596959 1.3770324s-.8826088.5518804-1.403041.5329676h-.67c.0049833.089931.0049833.180069 0 .27.148348 2.7441168-1.2486105 5.3412249-3.62 6.73-.5044515 1.0148357-.7549602 2.1369776-.73 3.27.0090914.5362498.2542431 1.0411892.67 1.38 3.47 2.89 4.8 1.94 8.46 3.08z" fill="#2c3e50"/></g></svg>