<?xml version="1.0" encoding="iso-8859-1"?>
<!-- Generator: Adobe Illustrator 19.0.0, SVG Export Plug-In . SVG Version: 6.00 Build 0)  -->
<svg version="1.1" id="Capa_1" xmlns="http://www.w3.org/2000/svg" xmlns:xlink="http://www.w3.org/1999/xlink" x="0px" y="0px"
	 viewBox="0 0 512 512" style="enable-background:new 0 0 512 512;" xml:space="preserve">
<g>
	<path style="fill:#FFB14E;" d="M449.72,79.139l0.01,30.91c0,12.805,10.374,23.179,23.179,23.179s23.179-10.374,23.179-23.179
		v-30.91H449.72z"/>
	<path style="fill:#FFB14E;" d="M310.088,411.556h-30.906v46.359h30.906c12.805,0,23.179-10.374,23.179-23.179
		S322.893,411.556,310.088,411.556z"/>
</g>
<path style="fill:#FFCE47;" d="M496.089,30.91c0-16.998-13.908-30.906-30.906-30.906L386.836,0
	c-12.805,0-23.179,10.374-23.179,23.179s10.374,23.179,23.179,23.179l30.907,0.004l-99.579,99.568
	c-37.571-24.859-86.753-24.859-124.324,0l-23.561-23.561l21.85-21.85c9.055-9.055,9.055-23.736,0-32.781
	c-9.055-9.055-23.725-9.055-32.781,0L137.5,89.59L94.262,46.363l30.907-0.004c12.805,0,23.179-10.374,23.179-23.179
	S137.975,0,125.169,0L46.822,0.004c-16.998,0-30.906,13.908-30.906,30.906l-0.01,79.134c0,12.805,10.374,23.179,23.179,23.179
	s23.179-10.374,23.179-23.179l0.01-30.901l42.835,42.835L83.259,143.83c-9.055,9.055-9.055,23.725,0,32.781
	c9.045,9.055,23.725,9.055,32.781,0l21.851-21.851l23.643,23.643c-28.629,43.752-23.736,103.019,14.701,141.456
	c16.102,16.092,35.851,26.301,56.589,30.638v61.06h-30.906c-12.805,0-23.179,10.374-23.179,23.179s10.374,23.179,23.179,23.179
	h30.906v30.906c0,12.805,10.374,23.179,23.179,23.179s23.179-10.374,23.179-23.179v-30.906c12.805,0,23.179-10.374,23.179-23.179
	s-10.374-23.179-23.179-23.179v-61.06c20.738-4.337,40.487-14.546,56.589-30.638c38.437-38.437,43.33-97.704,14.701-141.456
	l99.259-99.259c0,6.398,2.596,12.187,6.789,16.39c4.203,4.193,9.993,6.789,16.39,6.789c12.805,0,23.179-10.384,23.179-23.179
	C496.1,79.144,496.089,30.91,496.089,30.91z M256.003,306.538c-36.698,0-66.447-29.75-66.447-66.447s29.75-66.447,66.447-66.447
	s66.447,29.75,66.447,66.447S292.7,306.538,256.003,306.538z"/>
<g>
</g>
<g>
</g>
<g>
</g>
<g>
</g>
<g>
</g>
<g>
</g>
<g>
</g>
<g>
</g>
<g>
</g>
<g>
</g>
<g>
</g>
<g>
</g>
<g>
</g>
<g>
</g>
<g>
</g>
</svg>
